<svg width="26" height="45" viewBox="0 0 26 45" fill="none" xmlns="http://www.w3.org/2000/svg">
<path d="M2.31336 44.1499C1.93526 44.1478 1.57192 44.004 1.30329 43.7475C1.16965 43.6215 1.0631 43.4713 0.990189 43.3053H0.99019C0.917127 43.139 0.87939 42.9603 0.87939 42.7796C0.87939 42.5989 0.917127 42.4202 0.99019 42.2538C1.06324 42.0875 1.17006 41.9371 1.30406 41.8109L21.68 22.5143L1.30549 3.21475C1.16562 3.09038 1.05295 2.94029 0.97458 2.77306C0.895839 2.60505 0.853448 2.4234 0.850202 2.239C0.846955 2.0546 0.882929 1.87167 0.955747 1.70117C1.02855 1.53071 1.13658 1.37643 1.27296 1.24727C1.40932 1.11814 1.57127 1.01672 1.74895 0.948654C1.92662 0.880595 2.11668 0.847169 2.30788 0.850188C2.49908 0.853207 2.6879 0.892616 2.86314 0.966275C3.0376 1.0396 3.19532 1.14549 3.32678 1.27809L24.723 21.5453C24.7232 21.5454 24.7233 21.5456 24.7235 21.5457C24.8579 21.6715 24.9652 21.8217 25.0386 21.988C25.112 22.1544 25.15 22.3334 25.15 22.5143C25.15 22.6953 25.112 22.8742 25.0386 23.0406C24.9651 23.2069 24.8579 23.3572 24.7234 23.483C24.7232 23.4831 24.7231 23.4832 24.723 23.4833L3.32708 43.7459C3.32675 43.7462 3.32641 43.7466 3.32607 43.7469C3.19437 43.8762 3.0367 43.9784 2.86289 44.0475L2.80745 43.9081L2.86288 44.0475C2.68874 44.1168 2.50177 44.1516 2.31336 44.1499ZM2.31336 44.1499C2.31325 44.1499 2.31315 44.1499 2.31305 44.1499L2.31437 44L2.31355 44.1499C2.31349 44.1499 2.31342 44.1499 2.31336 44.1499Z" fill="white" stroke="white" stroke-width="0.3"/>
</svg>
