<svg width="26" height="45" viewBox="0 0 26 45" fill="none" xmlns="http://www.w3.org/2000/svg">
<path d="M23.6866 0.850052C24.0647 0.852169 24.4281 0.99604 24.6967 1.25252C24.8304 1.37852 24.9369 1.52871 25.0098 1.69471L25.0098 1.69471C25.0829 1.86105 25.1206 2.03975 25.1206 2.22044C25.1206 2.40113 25.0829 2.57982 25.0098 2.74617C24.9368 2.91248 24.8299 3.06293 24.6959 3.18908L4.32001 22.4857L24.6945 41.7852C24.8344 41.9096 24.947 42.0597 25.0254 42.2269C25.1042 42.395 25.1466 42.5766 25.1498 42.761C25.153 42.9454 25.1171 43.1283 25.0443 43.2988C24.9714 43.4693 24.8634 43.6236 24.727 43.7527C24.5907 43.8819 24.4287 43.9833 24.2511 44.0513C24.0734 44.1194 23.8833 44.1528 23.6921 44.1498C23.5009 44.1468 23.3121 44.1074 23.1369 44.0337C22.9624 43.9604 22.8047 43.8545 22.6732 43.7219L1.27698 23.4547C1.27683 23.4546 1.27669 23.4544 1.27654 23.4543C1.14208 23.3285 1.03484 23.1783 0.961445 23.012C0.887966 22.8456 0.85 22.6666 0.85 22.4857C0.85 22.3047 0.887966 22.1258 0.961447 21.9594C1.03486 21.7931 1.14213 21.6428 1.27665 21.517C1.27675 21.5169 1.27687 21.5168 1.27697 21.5167L22.6729 1.2541C22.6733 1.25377 22.6736 1.25344 22.6739 1.2531C22.8056 1.12377 22.9633 1.02161 23.1371 0.95248L23.1926 1.09186L23.1371 0.952476C23.3113 0.883213 23.4982 0.848423 23.6866 0.850052ZM23.6866 0.850052C23.6868 0.850052 23.6869 0.850056 23.687 0.850056L23.6856 1.00005L23.6865 0.850052C23.6865 0.850052 23.6866 0.850052 23.6866 0.850052Z" fill="white" stroke="white" stroke-width="0.3"/>
</svg>
