<svg width="20" height="12" viewBox="0 0 20 12" fill="none" xmlns="http://www.w3.org/2000/svg">
<path d="M0.850023 1.54663C0.851059 1.36742 0.919487 1.19451 1.04253 1.06605C1.10316 1.00205 1.17562 0.950824 1.25597 0.915696C1.33651 0.880484 1.42316 0.862245 1.51088 0.862245C1.59859 0.862245 1.68525 0.880484 1.76579 0.915696C1.84623 0.950867 1.91877 1.00217 1.97945 1.06628L1.97931 1.06614L1.87064 1.16953L1.97962 1.06646L9.99402 9.48995L18.0089 1.06782C18.0685 1.00137 18.1405 0.947603 18.221 0.910064C18.3023 0.872143 18.3904 0.851665 18.4798 0.850097C18.5693 0.848529 18.658 0.865911 18.7405 0.900995C18.823 0.936069 18.8974 0.988009 18.9596 1.05332C19.0217 1.11861 19.0703 1.19595 19.1028 1.28054C19.1354 1.36513 19.1514 1.4555 19.1499 1.54634C19.1485 1.63718 19.1297 1.72698 19.0944 1.81044C19.0595 1.8931 19.0091 1.9681 18.9458 2.03088L10.4631 10.9446C10.463 10.9447 10.4629 10.9448 10.4628 10.9449C10.4023 11.0093 10.3298 11.0609 10.2493 11.0962C10.1687 11.1316 10.0819 11.15 9.99401 11.15C9.90613 11.15 9.81933 11.1316 9.7387 11.0962C9.65825 11.0609 9.58577 11.0093 9.52525 10.945C9.52513 10.9448 9.52502 10.9447 9.5249 10.9446L1.04445 2.03124C1.0441 2.03088 1.04374 2.03052 1.04339 2.03016C0.981192 1.96696 0.932253 1.89158 0.89916 1.80876C0.865921 1.72558 0.849264 1.63641 0.850023 1.54663ZM0.850023 1.54663C0.850023 1.54653 0.850025 1.54642 0.850025 1.54632L1.00002 1.54766L0.850021 1.54683C0.850021 1.54676 0.850023 1.5467 0.850023 1.54663Z" fill="white" stroke="white" stroke-width="0.3"/>
</svg>
