<svg width="12" height="20" viewBox="0 0 12 20" fill="none" xmlns="http://www.w3.org/2000/svg">
<path d="M10.4534 0.850023C10.6326 0.851059 10.8055 0.919487 10.934 1.04253C10.998 1.10316 11.0492 1.17562 11.0843 1.25597C11.1195 1.33651 11.1378 1.42316 11.1378 1.51088C11.1378 1.59859 11.1195 1.68525 11.0843 1.76579C11.0491 1.84623 10.9978 1.91877 10.9337 1.97945L10.9339 1.97931L10.8305 1.87064L10.9335 1.97962L2.51005 9.99402L10.9322 18.0089C10.9986 18.0685 11.0524 18.1405 11.0899 18.221C11.1279 18.3023 11.1483 18.3904 11.1499 18.4798C11.1515 18.5693 11.1341 18.658 11.099 18.7405C11.0639 18.823 11.012 18.8974 10.9467 18.9596C10.8814 19.0217 10.8041 19.0703 10.7195 19.1028C10.6349 19.1354 10.5445 19.1514 10.4537 19.1499C10.3628 19.1485 10.273 19.1297 10.1896 19.0944C10.1069 19.0595 10.0319 19.0091 9.96912 18.9457L1.05541 10.4631C1.0553 10.463 1.05519 10.4629 1.05508 10.4628C0.990699 10.4023 0.939144 10.3298 0.903786 10.2493C0.86836 10.1687 0.850002 10.0819 0.850002 9.99401C0.850002 9.90613 0.868359 9.81932 0.903787 9.7387C0.939136 9.65825 0.990676 9.58577 1.05504 9.52525C1.05516 9.52513 1.05528 9.52502 1.05541 9.5249L9.96876 1.04445C9.96912 1.0441 9.96948 1.04374 9.96984 1.04339C10.033 0.981192 10.1084 0.932253 10.1912 0.89916C10.2744 0.865921 10.3636 0.849264 10.4534 0.850023ZM10.4534 0.850023C10.4535 0.850023 10.4536 0.850025 10.4537 0.850025L10.4523 1.00002L10.4532 0.850021C10.4532 0.850021 10.4533 0.850023 10.4534 0.850023Z" fill="white" stroke="white" stroke-width="0.3"/>
</svg>
