<svg width="25" height="22" viewBox="0 0 25 22" fill="none" xmlns="http://www.w3.org/2000/svg">
<path d="M24.951 2.69708C24.0151 3.14149 23.0235 3.43484 22.0083 3.56769C23.0772 2.87485 23.8775 1.78832 24.2615 0.508747C23.2708 1.13222 22.1729 1.58606 21.0042 1.83882C20.2331 0.949591 19.2113 0.359811 18.0975 0.161064C16.9838 -0.037683 15.8403 0.165725 14.8447 0.739702C13.8491 1.31368 13.0571 2.2261 12.5917 3.33529C12.1263 4.44448 12.0135 5.68836 12.2708 6.87378C8.01042 6.65697 4.23646 4.44954 1.70833 1.11537C1.24874 1.95769 1.00902 2.91841 1.01458 3.89572C1.01458 5.81669 1.92083 7.50512 3.29375 8.49706C2.48006 8.46912 1.68435 8.23186 0.972917 7.80506V7.87246C0.972455 9.14905 1.38153 10.3865 2.13074 11.3749C2.87994 12.3632 3.92314 13.0416 5.08333 13.295C4.33156 13.5122 3.54418 13.5449 2.77917 13.3905C3.10846 14.4891 3.74757 15.4495 4.60731 16.1377C5.46705 16.8258 6.50453 17.2073 7.575 17.229C5.76201 18.7635 3.52341 19.5963 1.21875 19.5937C0.8125 19.5937 0.407292 19.5679 0 19.5185C2.3497 21.141 5.08178 22.0023 7.87187 22C17.3021 22 22.4531 13.5792 22.4531 6.28963C22.4531 6.05372 22.4531 5.81781 22.4375 5.5819C23.4437 4.801 24.3117 3.83148 25 2.71955L24.951 2.69708Z" fill="white"/>
</svg>
