<svg width="28" height="20" viewBox="0 0 28 20" fill="none" xmlns="http://www.w3.org/2000/svg">
<path d="M27.4143 3.18336C27.2561 2.58456 26.9442 2.03804 26.5097 1.59852C26.0752 1.15899 25.5335 0.841906 24.9387 0.679003C22.7558 0.0869142 14 0.0869141 14 0.0869141C14 0.0869141 5.24417 0.0869142 3.06017 0.679003C2.46564 0.842192 1.92418 1.1594 1.48992 1.59889C1.05567 2.03838 0.743857 2.58476 0.585667 3.18336C0 5.39227 0 10 0 10C0 10 0 14.6077 0.585667 16.8167C0.74385 17.4155 1.0558 17.962 1.49029 18.4015C1.92478 18.841 2.46654 19.1581 3.06133 19.321C5.24417 19.9131 14 19.9131 14 19.9131C14 19.9131 22.7558 19.9131 24.9398 19.321C25.5347 19.1582 26.0765 18.8412 26.511 18.4016C26.9455 17.9621 27.2574 17.4155 27.4155 16.8167C28 14.6077 28 10 28 10C28 10 28 5.39227 27.4143 3.18336ZM11.1358 14.1833V5.81669L18.4543 10L11.1358 14.1833Z" fill="white"/>
</svg>
